<?xml version="1.0" encoding="UTF-8"?>
<svg width="982px" height="981px" viewBox="0 0 982 981" version="1.1" xmlns="http://www.w3.org/2000/svg" xmlns:xlink="http://www.w3.org/1999/xlink">
    <!-- Generator: Sketch 45.2 (43514) - http://www.bohemiancoding.com/sketch -->
    <title>Indigo Logo</title>
    <desc>Created with Sketch.</desc>
    <defs>
        <circle id="path-1" cx="490.278078" cy="490.925739" r="490.278078"></circle>
        <circle id="path-3" cx="490.278078" cy="490.925739" r="490.278078"></circle>
    </defs>
    <g id="Page-1" stroke="none" stroke-width="1" fill="none" fill-rule="evenodd">
        <g id="Indigo-Logo" transform="translate(-1.000000, 0.000000)">
            <g id="Logo-Outline" transform="translate(491.987190, 490.939005) rotate(90.000000) translate(-491.987190, -490.939005) translate(1.487190, -0.060995)">
                <g id="Mask-Clipped">
                    <g>
                        <mask id="mask-2" fill="white">
                            <use xlink:href="#path-1"></use>
                        </mask>
                        <g id="path-1"></g>
                        <path d="M490.278078,936.979765 C736.626914,936.979765 936.332104,737.274575 936.332104,490.925739 C936.332104,244.576903 736.626914,44.8717126 490.278078,44.8717126 C243.929242,44.8717126 44.2240514,244.576903 44.2240514,490.925739 C44.2240514,737.274575 243.929242,936.979765 490.278078,936.979765 Z M490.278078,981.203819 C219.504972,981.203819 0,761.698845 0,490.925739 C0,220.152633 219.504972,0.647661195 490.278078,0.647661195 C761.051184,0.647661195 980.556156,220.152633 980.556156,490.925739 C980.556156,761.698845 761.051184,981.203819 490.278078,981.203819 Z" id="Mask" fill="#12286E" fill-rule="nonzero" mask="url(#mask-2)"></path>
                    </g>
                </g>
                <g id="Path-3-Clipped">
                    <g>
                        <mask id="mask-4" fill="white">
                            <use xlink:href="#path-3"></use>
                        </mask>
                        <g id="path-3"></g>
                        <path d="M279.50853,-195.699915 C283.318745,-194.904573 287.74514,-193.96551 292.736158,-192.888423 C307.019329,-189.806043 322.944328,-186.23952 340.098054,-182.234662 C389.084689,-170.797819 438.059816,-158.152557 483.691026,-144.678068 C555.123627,-123.584656 611.332086,-102.319593 645.249377,-83.1265853 C651.051465,-79.8433188 665.564013,-72.7685207 665.324077,-58.1821926 C665.08414,-43.5958644 652.33468,-36.4978205 648.132236,-34.9454323 C642.410226,-32.8317149 635.990552,-30.7369052 628.889289,-28.6691725 C596.996107,-19.3825747 560.282164,-18.3406008 482.758205,-5.44918797 C481.589047,-5.25477361 481.589047,-5.25477361 480.419665,-5.06032348 C401.902729,7.99606836 371.826091,13.6346008 338.186568,23.3433849 C286.526082,38.2532433 258.262743,62.34582 258.262743,93.4092263 C258.262743,124.006872 286.303611,143.471722 338.018915,161.396451 C372.336545,173.291078 409.256303,182.429707 485.107986,199.117475 C484.564091,198.997816 501.042001,202.620238 505.64236,203.634169 C571.724197,218.198773 606.09996,226.744388 635.092064,236.747319 C652.015251,242.5862 662.414738,248.719211 662.414738,259.063413 C662.414738,269.407615 653.30326,272.671863 636.631212,277.478604 C608.038607,285.722176 574.79117,292.115379 508.173639,303.117364 C505.177064,303.612253 490.342211,306.056766 486.183227,306.744166 C412.003373,319.00467 373.450727,326.568906 338.829745,337.02685 C287.020606,352.676811 258.284157,371.926051 258.262747,403.801757 C258.242177,434.427695 284.956655,453.589504 333.29021,469.817734 C365.423051,480.606495 399.765416,488.437494 472.261607,502.8466 C474.441594,503.279888 483.284264,505.035885 485.522558,505.480771 C560.131147,520.31006 595.842816,528.527359 627.873188,539.557287 C663.299309,551.756571 669.578019,564.179989 669.578019,572.358206 C669.578019,580.536423 663.36919,590.317225 628.316385,600.311932 C596.316699,609.436095 560.078292,615.630884 486.715843,625.812202 C483.465528,626.263045 483.465528,626.263045 480.213856,626.713484 C476.961968,627.163841 476.961968,627.163841 473.710562,627.614275 C400.154579,637.807236 366.66649,643.380653 334.558561,652.109201 C285.606642,665.416792 258.262743,683.106033 258.262743,714.222173 C258.262743,745.226903 286.326804,765.490473 337.771885,784.052169 C372.21169,796.478259 409.908545,806.180684 484.954474,823.288449 C483.725682,823.008329 505.336397,827.928917 511.262188,829.283952 C574.428341,843.728 608.771137,852.626608 636.908788,862.73946 C648.337338,866.846953 655.170977,875.24152 655.170977,887.470822 C655.170977,899.700124 642.832802,910.628527 626.364569,917.460976 C591.325052,931.998402 542.869732,946.699926 484.577967,961.136606 C438.918232,972.444803 389.916886,982.94175 340.904512,992.34826 C323.741975,995.642103 307.808445,998.563445 293.516908,1001.07868 C288.522295,1001.9577 284.092352,1002.72275 280.278626,1003.36966 C278.003089,1003.75565 276.446568,1004.01519 275.660579,1004.14414 C264.347296,1006.00008 256.68061,1016.67585 258.536558,1027.98914 C260.392505,1039.30242 271.068275,1046.9691 282.381559,1045.11316 C283.24047,1044.97225 284.870943,1044.70038 287.221687,1044.30163 C291.118429,1043.64065 295.632629,1042.86105 300.713029,1041.96692 C315.207241,1039.41601 331.349258,1036.45646 348.729618,1033.1208 C398.41124,1023.58586 448.103889,1012.94081 494.558548,1001.43575 C554.699577,986.541076 604.938252,971.298468 642.27433,955.808227 C693.025319,934.752325 720.873773,913.884503 720.873773,885.13082 C720.873773,857.379112 696.300456,839.96855 650.950752,823.669577 C627.241175,815.148204 384.124308,756.640062 351.862246,744.999715 C329.997623,737.110827 317.426,728.590722 317.426,716.610917 C317.426,704.631113 327.963249,696.925543 345.449607,692.171872 C375.181826,684.08916 407.777394,678.664287 479.409245,668.737959 C482.657037,668.288027 482.657037,668.288027 485.909876,667.837539 C489.164773,667.386652 489.164773,667.386652 492.422871,666.93473 C567.821088,656.470885 605.142084,650.091033 639.700425,640.237314 C691.280286,625.530199 720.453658,605.626871 720.87213,572.358206 C721.287474,539.338272 692.780538,517.999393 641.390769,500.302893 C606.915045,488.430887 570.195493,479.981673 493.616131,464.760671 C491.373196,464.314864 482.530411,462.558842 480.355008,462.126466 C409.728705,448.089013 376.320051,440.470925 346.504675,430.460265 C333.172471,425.983911 322.470542,421.4656 314.506583,416.977018 C311.988179,415.557616 307.459513,411.598217 307.104756,403.815259 C306.75,396.0323 312.282918,392.216416 314.361125,391.077652 C323.228237,386.218873 335.446134,381.418361 350.834903,376.769883 C383.11481,367.019107 420.619251,359.660533 492.953283,347.705108 C497.099752,347.019777 511.931128,344.575836 514.93854,344.079157 C583.25228,332.797042 617.401815,326.230373 648.132463,317.370378 C695.216832,303.79542 720.873773,287.711184 720.873773,259.063413 C720.873773,230.96078 695.590756,213.702462 648.632946,197.500956 C617.585226,186.788791 582.283654,178.013025 514.578268,163.090588 C509.964944,162.073799 493.474698,158.448665 494.02853,158.570511 C419.865672,142.254294 383.824683,133.333182 351.615217,122.169254 C332.439572,115.5229 310.440916,110.83152 310.3876,94.2247962 C310.334284,77.6180726 330.868042,68.6667828 349.698907,63.2319611 C381.170355,54.1489105 432.994627,43.3953763 489.568468,35.5050889 C546.142308,27.6148015 606.393745,21.1218771 640.496004,11.1920445 C692.802504,-4.038465 721.409152,-22.5854608 720.870787,-54.3223717 C720.688853,-65.0474053 716.555971,-75.1572305 709.328843,-84.5645648 C682.86721,-119.008876 608.020008,-151.253713 495.448624,-184.49504 C448.964753,-198.221314 399.245151,-211.058797 349.537055,-222.664079 C332.147627,-226.723965 315.996839,-230.341055 301.494048,-233.470831 C296.409979,-234.567999 291.892164,-235.526456 287.991853,-236.340606 C285.637864,-236.831976 284.004195,-237.167775 283.142129,-237.342393 C271.905815,-239.618391 260.951921,-232.354621 258.675922,-221.118307 C256.399924,-209.881993 263.663694,-198.928099 274.900009,-196.6521 C275.682856,-196.493529 277.236203,-196.17424 279.50853,-195.699915 Z" id="Path-3" fill="#12286E" fill-rule="nonzero" mask="url(#mask-4)"></path>
                    </g>
                </g>
            </g>
        </g>
    </g>
</svg>